<svg width="140" height="25" viewBox="0 0 140 25" fill="none" xmlns="http://www.w3.org/2000/svg">
<path d="M14.8525 0.313046C18.5973 0.313046 21.6337 3.34859 21.6338 7.09332C21.6338 9.17692 20.6927 11.0399 19.2139 12.2837C20.693 13.5276 21.6338 15.3913 21.6338 17.4752C21.6337 21.2199 18.5973 24.2554 14.8525 24.2554H0.900391C0.612388 24.2554 0.37893 24.022 0.378906 23.7339V21.3218C0.378906 17.5048 2.39139 14.1578 5.41309 12.2837C2.39164 10.4097 0.378906 7.06352 0.378906 3.24664V0.83453C0.37893 0.54652 0.612388 0.313101 0.900391 0.313046H14.8525ZM11.0068 13.8765C6.97835 13.8765 3.6967 17.0763 3.56543 21.0728H14.8525C16.8397 21.0728 18.451 19.4623 18.4512 17.4752C18.4512 15.4879 16.8398 13.8765 14.8525 13.8765H11.0068ZM3.56543 3.49566C3.6967 7.49222 6.97835 10.692 11.0068 10.692H14.8525C16.8398 10.692 18.4512 9.08058 18.4512 7.09332C18.451 5.10616 16.8397 3.49566 14.8525 3.49566H3.56543Z" fill="white"/>
<path opacity="0.7" d="M14.8525 10.6928C17.7303 10.6928 20.1874 12.4864 21.1719 15.016C20.627 16.1124 19.6416 16.949 18.4463 17.2963C18.354 15.3913 16.7804 13.8754 14.8525 13.8754H12.8652C12.8149 13.6083 12.7871 13.3329 12.7871 13.0512C12.7871 12.1841 13.0376 11.3755 13.4688 10.6928H14.8525Z" fill="url(#paint0_linear_3377_131)"/>
<path opacity="0.7" d="M4.59277 6.99463C5.88362 9.20556 8.28144 10.6909 11.0264 10.6909H12.9404C12.9836 10.9669 13.0068 11.2495 13.0068 11.5376C13.0068 12.3737 12.8178 13.1659 12.4805 13.8735H11.0264L10.752 13.8706C7.37253 13.785 4.38643 12.1203 2.5 9.58838C2.91092 8.51984 3.64939 7.61466 4.59277 6.99463Z" fill="url(#paint1_linear_3377_131)"/>
<path d="M14.8535 0.313046C18.5982 0.313046 21.6336 3.34863 21.6338 7.09332C21.6338 10.7212 18.785 13.6843 15.2021 13.8658L14.8535 13.8746H11.0039C6.97531 13.8746 3.69359 17.0741 3.5625 21.0709H0.378906C0.452767 17.8534 1.98143 14.9124 4.38086 13.0113C6.20491 11.5661 8.55946 10.7539 11.0039 10.692V10.6929H14.8535V10.692C16.8408 10.692 18.4521 9.08058 18.4521 7.09332C18.452 5.10621 16.8407 3.49566 14.8535 3.49566V0.313046Z" fill="white"/>
<path d="M131.744 21.201C128.043 21.201 125.301 18.5917 125.301 14.2252C125.301 10.0184 128.043 7.24933 131.744 7.24933C133.623 7.24933 134.984 7.91225 135.845 8.90916C135.949 9.02896 136.164 8.95929 136.164 8.80096V3.6474C136.164 3.55879 136.236 3.48697 136.324 3.48697H138.879C138.968 3.48697 139.039 3.55879 139.039 3.6474V20.8808C139.039 20.9694 138.968 21.0413 138.879 21.0413H136.674C136.595 21.0413 136.528 20.9835 136.516 20.9052L136.276 19.3453C136.254 19.2043 136.071 19.1578 135.979 19.2672C135.07 20.3516 133.72 21.201 131.744 21.201ZM132.223 18.7515C134.62 18.7515 136.191 16.941 136.191 14.2784C136.191 11.536 134.62 9.69886 132.223 9.69886C129.827 9.69886 128.256 11.536 128.256 14.2252C128.256 16.941 129.827 18.7515 132.223 18.7515Z" fill="white"/>
<path d="M118.103 21.2004C113.816 21.2004 111.127 18.4313 111.127 14.2512C111.127 10.0444 113.816 7.2487 117.837 7.2487C121.75 7.2487 124.44 9.77811 124.44 13.8784V14.7031C124.44 14.7917 124.368 14.8635 124.279 14.8635H114.295C114.207 14.8635 114.136 14.9351 114.136 15.0233V15.0233C114.136 17.3131 115.68 18.8573 117.943 18.8573C119.679 18.8573 120.961 18.0251 121.397 16.6061C121.418 16.5367 121.481 16.4877 121.554 16.4877H124.115C124.215 16.4877 124.29 16.5783 124.269 16.6761C123.716 19.2463 121.404 21.2004 118.103 21.2004ZM114.241 12.5544C114.225 12.6493 114.3 12.7335 114.396 12.7335H121.33C121.426 12.7335 121.501 12.6495 121.486 12.5545C121.188 10.6426 119.826 9.5651 117.863 9.5651C116.107 9.5651 114.552 10.6668 114.241 12.5544Z" fill="white"/>
<path d="M104.031 21.2005C99.7438 21.2005 97.0547 18.4315 97.0547 14.2513C97.0547 10.0445 99.7438 7.24884 103.764 7.24884C107.678 7.24884 110.367 9.77824 110.367 13.8785V14.7032C110.367 14.7919 110.296 14.8637 110.207 14.8637H100.223C100.135 14.8637 100.063 14.9352 100.063 15.0234V15.0234C100.063 17.3132 101.608 18.8575 103.871 18.8575C105.607 18.8575 106.889 18.0253 107.325 16.6063C107.346 16.5369 107.409 16.4878 107.482 16.4878H110.042C110.142 16.4878 110.218 16.5785 110.197 16.6762C109.643 19.2465 107.332 21.2005 104.031 21.2005ZM100.169 12.5546C100.153 12.6495 100.228 12.7337 100.324 12.7337H107.258C107.354 12.7337 107.429 12.6496 107.414 12.5547C107.116 10.6428 105.754 9.56524 103.791 9.56524C102.035 9.56524 100.48 10.6669 100.169 12.5546Z" fill="white"/>
<path d="M82.5882 24.2383C82.4996 24.2383 82.4277 24.1665 82.4277 24.0779L82.4277 7.56904C82.4277 7.48043 82.4996 7.4086 82.5882 7.4086H84.818C84.8978 7.4086 84.9655 7.46731 84.9768 7.54635L85.1955 9.07723C85.2157 9.21846 85.3986 9.26688 85.4914 9.15847C86.4 8.09629 87.7493 7.24885 89.7231 7.24885C93.4506 7.24885 96.193 9.85813 96.193 14.2247C96.193 18.4315 93.4506 21.2005 89.7497 21.2005C87.8722 21.2005 86.5118 20.5386 85.6504 19.5246C85.5474 19.4033 85.3299 19.4726 85.3299 19.6318V24.0779C85.3299 24.1665 85.2581 24.2383 85.1695 24.2383H82.5882ZM89.2438 18.751C91.6401 18.751 93.2376 16.9405 93.2376 14.2247C93.2376 11.5355 91.6401 9.69838 89.2438 9.69838C86.8742 9.69838 85.2766 11.5355 85.2766 14.1981C85.2766 16.9138 86.8742 18.751 89.2438 18.751Z" fill="white"/>
<path d="M75.4608 21.2005C71.8824 21.2005 69.4314 19.5862 69.2391 16.7346C69.233 16.6439 69.3059 16.5677 69.3968 16.5677H71.9042C71.988 16.5677 72.0571 16.6325 72.0687 16.7155C72.2502 18.0236 73.4843 18.964 75.4608 18.964C77.2979 18.964 78.4162 18.2984 78.4162 17.1268C78.4162 15.8754 77.1914 15.6358 75.2212 15.3962C72.0261 15.0501 69.4967 14.4111 69.4967 11.5089C69.4967 8.92623 71.8131 7.24884 75.088 7.24884C78.3714 7.24884 80.7112 8.72807 80.984 11.3371C80.9937 11.4295 80.92 11.5089 80.827 11.5089H78.3166C78.2364 11.5089 78.1692 11.4493 78.1531 11.3707C77.9288 10.273 76.8532 9.51199 75.1147 9.51199C73.3574 9.51199 72.319 10.0977 72.319 11.216C72.319 12.494 73.5438 12.7337 75.5141 12.9733C78.7091 13.346 81.2385 13.9584 81.2385 16.9405C81.2385 19.5497 78.7623 21.2005 75.4608 21.2005Z" fill="white"/>
<path d="M62.0305 21.2005C57.7438 21.2005 55.0547 18.4315 55.0547 14.2513C55.0547 10.0445 57.7438 7.24884 61.7643 7.24884C65.6782 7.24884 68.3674 9.77824 68.3674 13.8785V14.7032C68.3674 14.7919 68.2955 14.8637 68.2069 14.8637H58.2231C58.1349 14.8637 58.0634 14.9352 58.0634 15.0234V15.0234C58.0634 17.3132 59.6076 18.8575 61.8708 18.8575C63.6069 18.8575 64.8891 18.0253 65.3247 16.6063C65.346 16.5369 65.4092 16.4878 65.4818 16.4878H68.0423C68.1423 16.4878 68.2181 16.5785 68.197 16.6762C67.6433 19.2465 65.3317 21.2005 62.0305 21.2005ZM58.1687 12.5546C58.1531 12.6495 58.2279 12.7337 58.3241 12.7337H65.258C65.3541 12.7337 65.4289 12.6496 65.414 12.5547C65.1157 10.6428 63.754 9.56524 61.7909 9.56524C60.0352 9.56524 58.4798 10.6669 58.1687 12.5546Z" fill="white"/>
<path d="M52.0237 21.0411C49.4144 21.0411 48.3228 19.8164 48.3228 17.3402V10.0988C48.3228 10.0102 48.2509 9.93838 48.1623 9.93838H46.1136C46.025 9.93838 45.9531 9.86655 45.9531 9.77795V7.5694C45.9531 7.4808 46.025 7.40897 46.1136 7.40897H48.1623C48.2509 7.40897 48.3228 7.33714 48.3228 7.24853V3.66348C48.3228 3.57488 48.3946 3.50305 48.4832 3.50305H51.0379C51.1265 3.50305 51.1983 3.57488 51.1983 3.66348V7.24853C51.1983 7.33714 51.2701 7.40897 51.3588 7.40897H54.5524C54.641 7.40897 54.7129 7.4808 54.7129 7.5694V9.77795C54.7129 9.86655 54.641 9.93838 54.5524 9.93838H51.3588C51.2701 9.93838 51.1983 10.0102 51.1983 10.0988V17.0473C51.1983 18.1124 51.5977 18.5117 52.6893 18.5117H54.5524C54.641 18.5117 54.7129 18.5836 54.7129 18.6722V20.8807C54.7129 20.9693 54.641 21.0411 54.5524 21.0411H52.0237Z" fill="white"/>
<path d="M42.2399 21.0408C42.1513 21.0408 42.0795 20.969 42.0795 20.8804V7.46715C42.0795 7.4433 42.1069 7.42986 42.1257 7.44446V7.44446C42.9529 8.08463 44.1082 8.08463 44.9354 7.44446V7.44446C44.9542 7.42986 44.9816 7.4433 44.9816 7.46715V20.8804C44.9816 20.969 44.9098 21.0408 44.8212 21.0408H42.2399ZM43.5172 6.81617C42.5854 6.81617 41.8398 6.09729 41.8398 5.13878C41.8398 4.18026 42.5854 3.488 43.5172 3.488C44.4758 3.488 45.1946 4.18026 45.1946 5.13878C45.1946 6.09729 44.4758 6.81617 43.5172 6.81617Z" fill="white"/>
<path d="M34.4828 21.2007C32.5232 21.2007 31.1351 20.4533 30.2786 19.3779C30.1875 19.2634 29.9943 19.307 29.9712 19.4515L29.7385 20.9059C29.7261 20.9837 29.6589 21.041 29.5801 21.041H27.3479C27.2593 21.041 27.1875 20.9691 27.1875 20.8805V3.64719C27.1875 3.55858 27.2593 3.48675 27.3479 3.48675H29.9292C30.0178 3.48675 30.0897 3.55858 30.0897 3.64719V8.92437C30.0897 9.07855 30.2914 9.14826 30.3938 9.03296C31.2821 8.03251 32.6099 7.24903 34.5095 7.24903C38.2104 7.24903 40.9528 9.83168 40.9528 14.2249C40.9528 18.405 38.2104 21.2007 34.4828 21.2007ZM34.0036 18.7512C36.3999 18.7512 37.9974 16.9406 37.9974 14.2249C37.9974 11.5357 36.3999 9.69856 34.0036 9.69856C31.6339 9.69856 30.1968 11.5357 30.1968 14.1982C30.1968 16.914 31.6339 18.7512 34.0036 18.7512Z" fill="white"/>
<defs>
<linearGradient id="paint0_linear_3377_131" x1="17.5143" y1="13.1718" x2="20.1284" y2="15.899" gradientUnits="userSpaceOnUse">
<stop stop-color="#91A7C8"/>
<stop offset="1" stop-color="#849FC8" stop-opacity="0"/>
</linearGradient>
<linearGradient id="paint1_linear_3377_131" x1="3.58853" y1="8.47157" x2="7.42851" y2="11.4965" gradientUnits="userSpaceOnUse">
<stop stop-color="#849FC8" stop-opacity="0"/>
<stop offset="1" stop-color="#91A7C8"/>
</linearGradient>
</defs>
</svg>
